#N canvas 934 116 741 708 10;
#X declare -lib timbreIDLib;
#X msg 29 35 \; pd dsp \$1;
#X obj 29 12 tgl 15 0 empty empty empty 17 7 0 10 #fcfcfc #000000 #000000 0 1;
#X obj 236 18 bng 15 250 50 0 empty empty empty 17 7 0 10 #fcfcfc #000000 #000000;
#X msg 301 38 stop;
#X text 50 12 1 - liga e desliga o audio;
#X text 253 17 3 play do início ao fim;
#X text 254 37 4 stop;
#X text 26 78 volume (amplitude!);
#X obj 28 214 *~, f 8;
#X floatatom 28 179 5 0 0 0 - - - 0;
#X obj 28 99 vsl 15 70 0 1 0 0 empty empty empty 0 -9 0 10 #fcfcfc #000000 #000000 0 1;
#X obj 28 237 dac~ 1 2;
#X obj 383 81 delay 100;
#N canvas 185 103 1194 634 audioAnalysis 0;
#X obj 155 392 spigot;
#X obj 257 87 tgl 15 0 empty empty empty 17 7 0 10 #fcfcfc #000000 #000000 0 1;
#X obj 257 110 metro 100;
#X floatatom 257 472 5 0 0 0 - - - 0;
#X floatatom 155 581 5 0 0 0 - - - 0;
#X obj 257 389 spigot;
#X text 274 86 on/off;
#X obj 422 87 tgl 15 0 empty empty empty 17 7 0 10 #fcfcfc #000000 #000000 0 1;
#X obj 422 110 metro 100;
#X obj 422 389 spigot;
#X text 439 86 on/off;
#X obj 35 86 tgl 15 0 empty empty empty 17 7 0 10 #fcfcfc #000000 #000000 0 1;
#X obj 35 113 metro 100;
#X floatatom 35 475 5 0 0 0 - - - 0;
#X obj 35 392 spigot;
#X obj 576 87 tgl 15 0 empty empty empty 17 7 0 10 #fcfcfc #000000 #000000 0 1;
#X obj 576 110 metro 100;
#X floatatom 576 471 5 0 0 0 - - - 0;
#X text 591 86 on/off;
#X text 54 85 on/off;
#X obj 576 388 spigot;
#X floatatom 769 298 5 0 0 0 - - - 0;
#X floatatom 769 474 5 0 0 0 - - - 0;
#X obj 926 267 bonk~;
#X obj 987 552 bng 15 250 50 0 empty empty empty 17 7 0 10 #fcfcfc #000000 #000000;
#X obj 953 290 unpack 0 0 0;
#X floatatom 987 322 5 0 0 0 - - - 0;
#X obj 987 499 >;
#X floatatom 1002 477 5 0 0 0 - - - 0;
#X obj 987 526 sel 1;
#X obj 1002 429 loadbang;
#X text 1036 478 threshold;
#X obj 499 14 loadbang;
#X msg 499 38 1;
#X obj 68 364 inlet;
#X obj 188 365 inlet;
#X obj 290 363 inlet;
#X obj 455 364 inlet;
#X obj 609 365 inlet;
#X obj 769 390 spigot;
#X obj 802 367 inlet;
#X obj 987 405 spigot;
#X obj 1020 382 inlet;
#X obj 35 503 outlet;
#X obj 155 609 outlet;
#X obj 257 499 outlet;
#X obj 422 500 outlet;
#X obj 576 551 outlet;
#X obj 769 496 outlet;
#X obj 987 588 outlet;
#X msg 1002 452 45;
#X floatatom 155 506 5 0 0 0 - - - 0;
#X obj 45 136 inlet~;
#X obj 35 324 specFlatness~ 1024;
#X obj 769 324 float;
#X obj 769 420 change;
#X obj 769 266 sigmund~ -hop 512 notes;
#X obj 1059 451 inlet;
#X obj 1035 360 outlet;
#X obj 155 550 / 100;
#X obj 155 325 env~ 256;
#X obj 257 322 specBrightness~ 1024 5000;
#X obj 422 322 specCentroid~ 1024;
#X obj 576 322 specFlux~ 1024 128;
#X obj 576 508 / 256;
#X obj 769 446 mtof;
#X connect 0 0 51 0;
#X connect 1 0 2 0;
#X connect 2 0 61 0;
#X connect 3 0 45 0;
#X connect 4 0 44 0;
#X connect 5 0 3 0;
#X connect 7 0 8 0;
#X connect 8 0 62 0;
#X connect 9 0 46 0;
#X connect 11 0 12 0;
#X connect 12 0 53 0;
#X connect 13 0 43 0;
#X connect 14 0 13 0;
#X connect 15 0 16 0;
#X connect 16 0 63 0;
#X connect 17 0 64 0;
#X connect 20 0 17 0;
#X connect 21 0 54 0;
#X connect 22 0 48 0;
#X connect 23 1 25 0;
#X connect 24 0 49 0;
#X connect 25 1 26 0;
#X connect 26 0 41 0;
#X connect 26 0 58 0;
#X connect 27 0 29 0;
#X connect 28 0 27 1;
#X connect 29 0 24 0;
#X connect 30 0 50 0;
#X connect 32 0 33 0;
#X connect 33 0 11 0;
#X connect 33 0 1 0;
#X connect 33 0 7 0;
#X connect 33 0 15 0;
#X connect 34 0 14 1;
#X connect 35 0 0 1;
#X connect 36 0 5 1;
#X connect 37 0 9 1;
#X connect 38 0 20 1;
#X connect 39 0 55 0;
#X connect 40 0 39 1;
#X connect 41 0 27 0;
#X connect 42 0 41 1;
#X connect 50 0 28 0;
#X connect 51 0 59 0;
#X connect 52 0 23 0;
#X connect 52 0 53 0;
#X connect 52 0 56 0;
#X connect 52 0 60 0;
#X connect 52 0 61 0;
#X connect 52 0 62 0;
#X connect 52 0 63 0;
#X connect 53 0 14 0;
#X connect 54 0 39 0;
#X connect 55 0 65 0;
#X connect 56 0 21 0;
#X connect 57 0 28 0;
#X connect 59 0 4 0;
#X connect 60 0 0 0;
#X connect 61 0 5 0;
#X connect 62 0 9 0;
#X connect 63 0 20 0;
#X connect 64 0 47 0;
#X connect 65 0 22 0;
#X restore 237 316 pd audioAnalysis;
#X f 48;
#X obj 272 98 tgl 15 0 empty empty empty 17 7 0 10 #fcfcfc #000000 #000000 0 1;
#X obj 308 119 tgl 15 0 empty empty empty 17 7 0 10 #fcfcfc #000000 #000000 0 1;
#X obj 343 142 tgl 15 0 empty empty empty 17 7 0 10 #fcfcfc #000000 #000000 0 1;
#X obj 379 168 tgl 15 0 empty empty empty 17 7 0 10 #fcfcfc #000000 #000000 0 1;
#X obj 415 191 tgl 15 0 empty empty empty 17 7 0 10 #fcfcfc #000000 #000000 0 1;
#X obj 450 219 tgl 15 0 empty empty empty 17 7 0 10 #fcfcfc #000000 #000000 0 1;
#X obj 486 244 tgl 15 0 empty empty empty 17 7 0 10 #fcfcfc #000000 #000000 0 1;
#X floatatom 237 341 5 0 0 0 - - - 0;
#X floatatom 277 341 5 0 0 0 - - - 0;
#X floatatom 318 341 5 0 0 0 - - - 0;
#X floatatom 359 341 5 0 0 0 - - - 0;
#X floatatom 407 341 5 0 0 0 - - - 0;
#X floatatom 448 341 5 0 0 0 - - - 0;
#X obj 489 341 bng 15 250 50 0 empty empty empty 17 7 0 10 #fcfcfc #000000 #000000;
#X text 293 97 flatness 1;
#X text 334 117 envelope 2;
#X floatatom 522 290 5 0 0 0 - - - 0;
#X floatatom 530 341 5 0 0 0 - - - 0;
#X text 565 341 reading bonk;
#X text 555 289 set threshold for bonk;
#X text 246 357 1;
#X text 285 357 2;
#X text 370 141 brightness 3;
#X text 402 164 centroid 4;
#X text 440 193 flux 5;
#X text 474 216 pitch 6;
#X text 509 240 attack 7;
#X text 318 358 3;
#X text 358 358 4;
#X text 406 358 5;
#X text 443 358 6;
#X text 481 357 7;
#X obj 29 270 declare -lib timbreIDLib;
#X obj 315 577 list prepend send;
#X obj 315 603 list trim;
#X msg 115 603 disconnect;
#X msg 116 578 connect 127.0.0.1 8000;
#X obj 315 628 netsend -u -b;
#X obj 234 401 oscformat flatness;
#X obj 315 443 oscformat brightness;
#X obj 357 464 oscformat centroid;
#X obj 396 488 oscformat flux;
#X obj 438 509 oscformat pitch;
#X obj 478 532 oscformat attack;
#X msg 478 436 1;
#X msg 508 458 0;
#X obj 508 436 del 50;
#X obj 274 423 oscformat envelope;
#X obj 236 65 adc~;
#X connect 1 0 0 0;
#X connect 2 0 62 0;
#X connect 3 0 62 0;
#X connect 8 0 11 0;
#X connect 8 0 11 1;
#X connect 9 0 8 0;
#X connect 10 0 9 0;
#X connect 12 0 2 0;
#X connect 13 0 21 0;
#X connect 13 1 22 0;
#X connect 13 2 23 0;
#X connect 13 3 24 0;
#X connect 13 4 25 0;
#X connect 13 5 26 0;
#X connect 13 6 27 0;
#X connect 13 7 31 0;
#X connect 14 0 13 1;
#X connect 15 0 13 2;
#X connect 16 0 13 3;
#X connect 17 0 13 4;
#X connect 18 0 13 5;
#X connect 19 0 13 6;
#X connect 20 0 13 7;
#X connect 21 0 52 0;
#X connect 22 0 61 0;
#X connect 23 0 53 0;
#X connect 24 0 54 0;
#X connect 25 0 55 0;
#X connect 26 0 56 0;
#X connect 27 0 58 0;
#X connect 27 0 60 0;
#X connect 30 0 13 8;
#X connect 47 0 48 0;
#X connect 48 0 51 0;
#X connect 49 0 51 0;
#X connect 50 0 51 0;
#X connect 52 0 47 0;
#X connect 53 0 47 0;
#X connect 54 0 47 0;
#X connect 55 0 47 0;
#X connect 56 0 47 0;
#X connect 57 0 47 0;
#X connect 58 0 57 0;
#X connect 59 0 57 0;
#X connect 60 0 59 0;
#X connect 61 0 47 0;
#X connect 62 0 13 0;
#X connect 62 0 8 1;
#X connect 62 1 12 0;
